<?xml version="1.0" encoding="UTF-8" standalone="no"?>
<!DOCTYPE svg PUBLIC "-//W3C//DTD SVG 1.1//EN" "http://www.w3.org/Graphics/SVG/1.1/DTD/svg11.dtd">
<svg width="100%" height="100%" viewBox="0 0 563.69 110.23" version="1.1" xmlns="http://www.w3.org/2000/svg" xmlns:xlink="http://www.w3.org/1999/xlink" xml:space="preserve" xmlns:serif="http://www.serif.com/" style="fill-rule:evenodd;clip-rule:evenodd;stroke-linejoin:round;stroke-miterlimit:2;">
    <g transform="matrix(1,0,0,1,-0,-9.704131)">
        <g transform="matrix(2.834646,0,0,2.834646,145.635199,-350.404668)">
            <g transform="matrix(2.810806,0,0,2.810806,93.03352,-220.419322)">
                <g transform="matrix(0.111304,0,0,0.111304,-356.227457,-8.123297)">
                    <path d="M2738.896,1307.882L2738.896,1183.588L2821.809,1183.588L2821.809,1197.28L2835.654,1197.28L2835.654,1238.661L2821.809,1238.661L2821.809,1252.505L2766.432,1252.505L2766.432,1307.882L2738.896,1307.882ZM2766.432,1238.813L2808.117,1238.813L2808.117,1197.28L2766.432,1197.28L2766.432,1238.813Z" style="fill:white;fill-rule:nonzero;"/>
                    <path d="M2849.498,1197.28L2849.498,1183.588L2877.035,1183.588L2877.035,1197.28L2849.498,1197.28ZM2849.498,1307.882L2849.498,1224.968L2877.035,1224.968L2877.035,1307.882L2849.498,1307.882Z" style="fill:white;fill-rule:nonzero;"/>
                    <path d="M2904.723,1307.882L2904.723,1294.038L2890.879,1294.038L2890.879,1197.28L2918.416,1197.28L2918.416,1224.968L2932.26,1224.968L2932.26,1238.661L2918.416,1238.661L2918.416,1294.19L2932.26,1294.19L2932.26,1307.882L2904.723,1307.882Z" style="fill:white;fill-rule:nonzero;"/>
                    <path d="M2946.104,1197.28L2946.104,1183.588L2973.641,1183.588L2973.641,1197.28L2946.104,1197.28ZM2946.104,1307.882L2946.104,1224.968L2973.641,1224.968L2973.641,1307.882L2946.104,1307.882Z" style="fill:white;fill-rule:nonzero;"/>
                    <path d="M3001.329,1307.882L3001.329,1294.038L2987.485,1294.038L2987.485,1197.28L3015.022,1197.28L3015.022,1224.968L3028.866,1224.968L3028.866,1238.661L3015.022,1238.661L3015.022,1294.19L3028.866,1294.19L3028.866,1307.882L3001.329,1307.882Z" style="fill:white;fill-rule:nonzero;"/>
                    <path d="M3098.088,1307.882L3098.088,1183.588L3167.157,1183.588L3167.157,1197.28L3181.002,1197.28L3181.002,1238.661L3167.157,1238.661L3167.157,1252.657L3181.002,1252.657L3181.002,1294.038L3167.157,1294.038L3167.157,1307.882L3098.088,1307.882ZM3125.624,1238.813L3153.465,1238.813L3153.465,1197.28L3125.624,1197.28L3125.624,1238.813ZM3125.624,1294.19L3153.465,1294.19L3153.465,1252.505L3125.624,1252.505L3125.624,1294.19Z" style="fill:white;fill-rule:nonzero;"/>
                    <path d="M3208.69,1307.882L3208.69,1294.038L3194.846,1294.038L3194.846,1266.349L3208.69,1266.349L3208.69,1252.657L3250.223,1252.657L3250.223,1238.661L3208.69,1238.661L3208.69,1224.968L3263.915,1224.968L3263.915,1238.813L3277.76,1238.813L3277.76,1307.882L3208.69,1307.882ZM3222.382,1294.19L3250.223,1294.19L3250.223,1266.349L3222.382,1266.349L3222.382,1294.19Z" style="fill:white;fill-rule:nonzero;"/>
                    <path d="M3305.449,1307.882L3305.449,1294.038L3291.604,1294.038L3291.604,1238.813L3305.449,1238.813L3305.449,1224.968L3360.674,1224.968L3360.674,1238.813L3374.518,1238.813L3374.518,1252.505L3346.982,1252.505L3346.982,1238.661L3319.141,1238.661L3319.141,1294.19L3346.982,1294.19L3346.982,1280.346L3374.518,1280.346L3374.518,1294.038L3360.674,1294.038L3360.674,1307.882L3305.449,1307.882Z" style="fill:white;fill-rule:nonzero;"/>
                </g>
            </g>
        </g>
    </g>
</svg>
